<?xml version="1.0" encoding="UTF-8" standalone="no"?>
<!-- Created with Inkscape (http://www.inkscape.org/) -->

<svg
   xmlns:dc="http://purl.org/dc/elements/1.1/"
   xmlns:cc="http://creativecommons.org/ns#"
   xmlns:rdf="http://www.w3.org/1999/02/22-rdf-syntax-ns#"
   xmlns:svg="http://www.w3.org/2000/svg"
   xmlns="http://www.w3.org/2000/svg"
   xmlns:sodipodi="http://sodipodi.sourceforge.net/DTD/sodipodi-0.dtd"
   xmlns:inkscape="http://www.inkscape.org/namespaces/inkscape"
   version="1.1"
   id="svg815"
   xml:space="preserve"
   width="417.452"
   height="178.32201"
   viewBox="0 0 1056 816"
   sodipodi:docname="TecNM-Horizontal-Blanco.svg"
   inkscape:version="0.92.2 (5c3e80d, 2017-08-06)"><metadata
     id="metadata821"><rdf:RDF><cc:Work
         rdf:about=""><dc:format>image/svg+xml</dc:format><dc:type
           rdf:resource="http://purl.org/dc/dcmitype/StillImage" /><dc:title></dc:title></cc:Work></rdf:RDF></metadata><defs
     id="defs819"><radialGradient
       fx="0"
       fy="0"
       cx="0"
       cy="0"
       r="1"
       gradientUnits="userSpaceOnUse"
       gradientTransform="matrix(-394.76123,-83.057816,-64.181915,305.04694,572.96484,28.914551)"
       spreadMethod="pad"
       id="radialGradient843"><stop
         style="stop-opacity:1;stop-color:#396fbf"
         offset="0"
         id="stop837" /><stop
         style="stop-opacity:1;stop-color:#11203d"
         offset="0.7410756"
         id="stop839" /><stop
         style="stop-opacity:1;stop-color:#11203d"
         offset="1"
         id="stop841" /></radialGradient><radialGradient
       fx="0"
       fy="0"
       cx="0"
       cy="0"
       r="1"
       gradientUnits="userSpaceOnUse"
       gradientTransform="matrix(-397.384,-83.60965,-64.608337,307.07367,574.26025,28.914551)"
       spreadMethod="pad"
       id="radialGradient865"><stop
         style="stop-opacity:1;stop-color:#396fbf"
         offset="0"
         id="stop859" /><stop
         style="stop-opacity:1;stop-color:#11203d"
         offset="0.7410756"
         id="stop861" /><stop
         style="stop-opacity:1;stop-color:#11203d"
         offset="1"
         id="stop863" /></radialGradient><radialGradient
       fx="0"
       fy="0"
       cx="0"
       cy="0"
       r="1"
       gradientUnits="userSpaceOnUse"
       gradientTransform="matrix(-404.7739,-85.164482,-65.809822,312.78412,574.26074,59.378906)"
       spreadMethod="pad"
       id="radialGradient887"><stop
         style="stop-opacity:1;stop-color:#396fbf"
         offset="0"
         id="stop881" /><stop
         style="stop-opacity:1;stop-color:#11203d"
         offset="0.7410756"
         id="stop883" /><stop
         style="stop-opacity:1;stop-color:#11203d"
         offset="1"
         id="stop885" /></radialGradient><clipPath
       clipPathUnits="userSpaceOnUse"
       id="clipPath919"><path
         d="M 0,612 H 792 V 0 H 0 Z"
         id="path917"
         inkscape:connector-curvature="0" /></clipPath></defs><sodipodi:namedview
     pagecolor="#ffffff"
     bordercolor="#666666"
     borderopacity="1"
     objecttolerance="10"
     gridtolerance="10"
     guidetolerance="10"
     inkscape:pageopacity="0"
     inkscape:pageshadow="2"
     inkscape:window-width="1366"
     inkscape:window-height="705"
     id="namedview817"
     showgrid="false"
     inkscape:zoom="0.46620522"
     inkscape:cx="88.938495"
     inkscape:cy="214.06149"
     inkscape:window-x="-8"
     inkscape:window-y="-8"
     inkscape:window-maximized="1"
     inkscape:current-layer="g823" /><g
     id="g823"
     inkscape:groupmode="layer"
     inkscape:label="Manual_de_Identidad_Grafica"
     transform="matrix(1.3333333,0,0,-1.3333333,0,816)"><g
       id="g4735"
       transform="matrix(4.5759929,0,0,4.5759861,-844.51121,-1121.2822)"
       style="fill:#ffffff"><path
         d="m 168.4907,294.6992 c 2.188,-3.705 -1.118,-13.609 -5.667,-14.441 -11.9,2.545 -19.127,18.63 -18.032,29.778 0.17,-0.024 0.339,-0.043 0.505,-0.059 0.038,-0.477 0.245,-1.326 0.365,-1.798 2.236,-8.753 13.162,-18.344 22.829,-13.48 m -32.598,-27.962 c -1.087,11.828 -0.417,33.391 4.714,44.203 1.147,-0.23 2.256,-0.579 3.438,-0.785 -0.015,-0.189 -0.112,-1.575 -0.119,-1.701 -1.034,-15.967 5.26,-26.092 14.507,-30.738 -1.02,-10.387 -14.153,-12.703 -22.54,-10.979 m 44.569,62.524 c 1.862,-4.756 1.661,-11.229 -2.558,-13.837 -1.462,-0.901 -2.041,0.095 -0.975,1.203 0.826,0.857 0.788,2.66 0.522,3.601 -1.102,3.911 -8.38,6.453 -11.833,7.515 1.332,4.936 0.636,9.914 -1.398,14.551 6.917,-1.987 13.505,-6.043 16.242,-13.033 m -18.855,-29.617 c 2.807,-2.398 7.052,-0.638 4.737,-2.394 -7.6,-5.763 -18.779,4.266 -20.28,12.668 0.337,-0.015 0.67,-0.017 0.998,-0.002 1.559,-3.398 2.042,-4.745 5.309,-7.21 1.808,-1.358 3.492,-1.986 5.902,-2.198 2.01,-0.176 1.719,0.515 3.334,-0.864 m 7.169,25.211 c 1.338,-0.465 -0.261,-4.887 -1.235,-4.627 -1.045,0.138 -2.017,0.044 -2.804,-0.629 0.688,-1.449 2.33,-4.984 2.863,-7.338 0.198,-0.876 0.444,-2.973 -0.542,-3.556 -0.682,-0.403 -1.853,-0.296 -3.442,-0.482 l -0.229,-1.65 c 0.113,-0.229 0.411,-0.32 0.394,-0.485 -0.019,-0.229 -0.546,-1.163 -1.611,-1.115 0.146,-0.552 0.537,-0.792 0.392,-1.643 -0.09,-0.524 -1.071,-0.605 -1.729,-0.954 -0.647,-0.345 -0.343,-0.552 -0.733,-0.588 -0.078,0.015 -0.166,0.029 -0.26,0.046 -9.237,1.619 -9.56,13.285 -2.638,17.752 l 2.118,-0.695 c 0.594,-0.194 0.535,-0.233 -0.121,-0.45 -0.266,-0.089 -0.553,-0.143 -0.838,-0.197 -0.737,-0.144 -0.807,-0.132 -0.048,-0.397 0.88,-0.307 1.926,-0.508 2.565,-0.739 0.331,-0.118 0.317,-0.227 0.567,0.116 0.268,0.364 0.274,0.805 0.074,1.305 0.462,-0.013 0.875,0.041 1.19,0.23 0.668,0.394 0.444,0.637 -0.246,0.6 -0.454,-0.026 -0.921,-0.174 -1.349,-0.05 l -2.943,0.832 c 1.124,0.993 3.391,2.05 5.881,1.889 l 1.094,4.089 z m -51.748,-38.787 c -1.762,-1.137 -3.892,12.804 0,15.712 4.291,2.978 8.379,5.545 13.028,8.465 l 3.016,1.876 c 0.654,-0.075 1.308,-0.156 1.961,-0.246 -0.556,-0.619 -1.689,-1.898 -1.892,-2.122 -5.625,-6.193 -12.122,-17.206 -16.113,-23.685 m 14.129,-17.95 c -5.321,-0.34 -14.605,0.24 -16.61,6.305 5.902,13.258 13.204,25.907 22.388,37.175 0.704,-0.112 1.406,-0.229 2.108,-0.358 -5.95,-14.048 -7.643,-27.944 -7.886,-43.122 m 21,36.073 c -2.001,1.512 -3.867,4.292 -4.669,6.494 1.212,0.425 2.214,1.335 2.777,2.479 -0.277,-2.639 0.383,-5.451 1.905,-7.763 0.167,-0.257 0.333,-0.514 0.532,-0.746 0.574,-0.668 0.167,-1 -0.545,-0.464 m -36.127,0.85 -0.018,6.518 c -0.002,0.554 0.346,0.894 0.68,0.935 4.639,0.587 10.272,0.241 15.004,-0.226 l 0.345,-0.034 c -4.781,-1.959 -11.861,-6.156 -14.85,-8.07 -0.389,-0.194 -0.739,-0.163 -1.004,0.031 -0.252,0.182 -0.157,0.531 -0.157,0.846 m 0.711,9.158 c -1.267,-0.033 -1.221,4.584 -0.037,4.726 9.241,1.099 17.502,1.22 26.533,0.605 -2.654,-1.649 -3.121,-5.325 -0.985,-7.583 -8.22,1.85 -17.081,2.482 -25.511,2.252 m -0.125,6.212 c -0.594,-0.042 -1.831,8.872 0.41,8.246 7.023,-1.959 14.332,-4.145 21.388,-4.925 -1.316,-0.73 -2.488,-1.564 -3.49,-2.48 -2.446,0.027 -4.868,-0.007 -7.262,-0.102 -3.683,-0.145 -7.367,-0.465 -11.046,-0.739 m -0.155,10.525 c -0.599,0.179 -0.978,4.586 0.146,4.389 7.381,-1.313 14.562,-2.438 21.805,-4.498 0.922,-2.552 2.193,-3.925 3.564,-5.489 -4.197,-1.506 -19.292,3.747 -25.515,5.598 m 10e-4,6.363 c -0.718,0.114 -0.719,3.64 -0.054,3.553 7.386,-0.964 14.361,-1.728 21.579,-3.856 -0.316,-1.489 -0.322,-2.979 -0.058,-4.399 -7.117,2.096 -14.169,3.539 -21.467,4.702 m -0.087,5.034 c -0.594,0.051 -0.715,2.913 0.099,2.894 9.467,-0.232 17.498,-0.816 26.741,-3.719 -1.116,-0.955 -1.919,-2.257 -2.238,-3.734 -8.147,2.784 -16.122,3.828 -24.602,4.559 m 34.391,-26.868 c -0.056,3.058 -2.383,4.807 -5.247,5.344 -2.997,0.562 -6.475,0.653 -8.671,0.443 6.143,5.015 18.771,5.142 25.568,2.417 -5.107,-0.07 -9.985,-3.307 -11.65,-8.204 m 3.866,21.83 c 3.339,-1.415 6.796,-2.935 9.977,-4.646 -0.013,-0.72 -0.107,-1.477 -0.164,-2.204 -0.242,-1.762 -0.802,-3.544 -1.264,-5.265 -4.924,2.142 -13.362,2.457 -18.639,0.994 -3.665,1.938 -5.731,6.091 -4.936,10.273 0.092,-0.029 0.823,-0.243 1.223,-0.363 0.137,-3.656 3.188,-6.578 6.932,-6.578 3.831,0 6.938,3.061 6.938,6.836 0,0.324 -0.024,0.642 -0.067,0.953 m -8.796,-20.263 c 0.936,0 1.694,-0.762 1.694,-1.698 0,-0.935 -0.758,-1.694 -1.694,-1.694 -0.937,0 -1.698,0.759 -1.698,1.694 0,0.936 0.76,1.698 1.698,1.698 m 0,1.646 c 1.846,0 3.342,-1.497 3.342,-3.344 0,-1.845 -1.496,-3.339 -3.342,-3.34 -1.847,0.001 -3.342,1.495 -3.342,3.34 0,1.847 1.495,3.344 3.342,3.344 m 4.104,19.915 c 0.739,-0.196 1.178,-0.956 0.981,-1.695 -0.2,-0.739 -0.957,-1.179 -1.697,-0.981 -0.739,0.197 -1.178,0.956 -0.98,1.695 0.197,0.739 0.957,1.177 1.696,0.981 m -0.993,1.936 c 2.462,-0.659 3.926,-3.188 3.268,-5.651 -0.658,-2.466 -3.187,-3.929 -5.651,-3.27 -2.461,0.657 -3.925,3.189 -3.268,5.65 0.659,2.463 3.187,3.929 5.651,3.271 m -3.847,-24.633 h 1.471 c 0.152,0 0.277,-0.126 0.277,-0.28 v -0.565 c 0,-0.154 -0.125,-0.278 -0.277,-0.278 h -1.471 c -0.153,0 -0.278,0.124 -0.278,0.278 v 0.565 c 0,0.154 0.125,0.28 0.278,0.28 m -18.998,49.527 c -2.252,-0.542 -8.018,-2.455 -10.072,-3.445 v -12.211 c 0,-3.496 -0.344,-2.703 3.325,-2.823 19.778,-0.647 30.361,-3.31 45.193,-12.483 -0.296,3.662 -1.482,7.23 -3.245,10.431 -9.926,7.247 -19.271,10.817 -31.503,11.651 34.671,8.281 65.795,-24.968 54.244,-59.322 -2.796,0.745 -8.518,2.977 -13.788,-1.472 2.562,-7.119 0.515,-18.253 -9.014,-17.603 0.339,-3.283 -1.434,-7.729 -6.246,-11.297 -6.714,-4.114 -17.107,-5.504 -22.27,-2.415 -6.414,-1.04 -11.097,0.855 -16.656,3.583 v -5.871 c 2.999,-1.973 6.468,-3.052 10.032,-3.896 l 2.531,-11.334 c 0.603,-1.217 1.68,-1.871 3.305,-1.88 h 17.112 c 1.454,0.01 2.454,0.701 3.125,1.88 l 2.444,11.659 c 2.261,0.602 4.501,1.341 6.666,2.233 l 8.844,-7.802 c 1.137,-0.525 2.319,-0.577 3.607,0.401 l 12.995,9.619 c 1.034,0.849 1.531,1.948 1.371,3.344 l -4.85,10.692 c 1.472,1.814 2.832,3.722 4.067,5.702 l 11.797,-1.113 c 1.238,0.018 2.095,0.806 2.641,2.444 l 4.87,15.435 c 0.423,1.402 0.254,2.592 -0.801,3.461 l -10.274,5.835 c 0.131,2.338 0.11,4.688 -0.057,7.019 l 10.191,6.031 c 1.115,0.595 1.265,1.863 0.653,3.618 l -5.104,15.307 c -0.314,1.488 -1.217,2.217 -2.619,2.301 l -11.789,-1.331 c -1.268,1.974 -2.659,3.857 -4.173,5.648 l 4.684,10.825 c 0.345,1.307 0.041,2.4 -1.472,3.284 l -13.139,9.37 c -1.263,0.874 -2.478,1.135 -3.608,0.337 l -8.713,-7.944 c -2.189,0.848 -4.415,1.553 -6.694,2.113 l -2.577,11.544 c -0.416,1.344 -1.439,1.921 -3.216,1.818 h -16.11 c -1.896,-0.062 -2.752,-0.826 -3.14,-1.845 z"
         style="fill:#ffffff;fill-opacity:1;fill-rule:evenodd;stroke:none"
         id="path955"
         inkscape:connector-curvature="0" /><g
         transform="translate(370.5396,324.1895)"
         id="g957"
         style="fill:#ffffff"><path
           inkscape:connector-curvature="0"
           id="path959"
           style="fill:#ffffff;fill-opacity:1;fill-rule:evenodd;stroke:none"
           d="m 0,0 c 0,-2.46 1.191,-4.878 3.228,-4.878 2.056,0 3.229,2.397 3.229,4.878 0,2.48 -1.169,4.904 -3.229,4.904 C 1.179,4.904 0,2.469 0,0 m 3.228,8.482 c 2.544,0 4.855,-2.06 5.771,-5.151 C 9.307,2.304 9.46,1.191 9.46,0 c 0,-4.602 -2.597,-8.484 -6.232,-8.484 -3.6,0 -6.222,3.919 -6.229,8.457 -0.01,4.586 2.59,8.509 6.229,8.509 M -42.974,0 c 0,-2.46 1.19,-4.878 3.23,-4.878 2.05,0 3.228,2.401 3.228,4.878 0,2.48 -1.171,4.904 -3.228,4.904 -2.053,0 -3.23,-2.435 -3.23,-4.904 m -3.003,0 c 0,1.18 0.157,2.282 0.47,3.311 0.934,3.103 3.194,5.171 5.763,5.171 3.665,0 6.23,-3.888 6.23,-8.482 0,-4.645 -2.633,-8.484 -6.23,-8.484 -3.614,0 -6.233,3.939 -6.233,8.484 m -18.51,0 c 0,-2.46 1.194,-4.878 3.23,-4.878 2.051,0 3.227,2.401 3.227,4.878 0,2.48 -1.17,4.904 -3.227,4.904 -2.049,0 -3.23,-2.435 -3.23,-4.904 m -3.004,0 c 0,4.637 2.648,8.482 6.234,8.482 3.635,0 6.231,-3.845 6.231,-8.482 0,-4.607 -2.596,-8.484 -6.231,-8.484 -3.586,0 -6.234,3.906 -6.234,8.484 m -33.221,6.636 V -7.961 h 7.595 v 3.349 h -4.766 v 3.149 h 2.745 v 3.264 h -2.745 v 2.878 h 4.698 v 3.285 h -7.535 z m 21.125,0 V -7.961 h 2.693 v 8.686 l 7.134,-8.686 h 0.753 V 7.964 h -2.691 v -8.779 l -7.187,8.779 -0.708,0.01 z m 26.08,0 V -7.961 h 7.679 v 3.416 H -50.59 V 7.964 h -2.923 z m 34.855,-14.597 h 2.92 V 7.964 l -2.92,-0.001 z m -2.452,7.518 V 0.876 H -26.3 V -2.36 h 2.314 v -2.315 c -0.514,-0.203 -1.042,-0.339 -1.579,-0.339 -2.294,0 -3.72,2.224 -3.72,5.131 0,1.429 0.356,2.625 1.079,3.58 1.17,1.557 3.005,1.827 4.491,0.908 0.563,-0.344 1.123,-0.892 1.694,-1.633 l 0.311,3.985 c -0.601,0.516 -1.226,0.901 -1.879,1.16 -2.342,0.93 -5.028,0.238 -6.783,-2.033 -1.246,-1.609 -1.867,-3.646 -1.867,-6.105 0,-4.891 2.717,-8.463 6.473,-8.463 1.618,0 3.228,0.678 4.662,1.617 z m -60.448,2.99 v 4.446 c -2.577,2.304 -6.097,1.976 -8.285,-0.941 -1.227,-1.64 -1.816,-3.781 -1.816,-6.052 0,-2.664 0.818,-5.088 2.437,-6.746 2.245,-2.301 5.311,-2.275 7.664,-0.204 v 4.04 c -1.681,-1.855 -4.425,-3.02 -6.169,-0.59 -0.652,0.904 -0.978,2.084 -0.978,3.542 0,1.45 0.33,2.646 0.986,3.575 1.455,2.064 3.652,1.658 5.219,0.05 z m 42.006,7.138 1.021,1.332 -0.718,0.938 -1.723,-2.248 z M -3.893,2.547 V 6.993 C -6.466,9.297 -9.985,8.963 -12.177,6.052 -13.403,4.413 -13.991,2.271 -13.991,0 c 0,-2.664 0.815,-5.088 2.438,-6.746 2.251,-2.314 5.319,-2.266 7.66,-0.204 v 4.04 c -1.684,-1.855 -4.421,-3.02 -6.168,-0.59 -0.654,0.904 -0.979,2.084 -0.979,3.542 0,1.45 0.33,2.646 0.986,3.575 1.457,2.064 3.653,1.662 5.224,0.05 z M -109.324,-7.961 V 4.633 l -3.884,-0.008 v 3.339 h 10.666 V 4.633 h -3.863 V -7.961 Z" /></g><g
         transform="translate(404.4014,299.4487)"
         id="g961"
         style="fill:#ffffff"><path
           inkscape:connector-curvature="0"
           id="path963"
           style="fill:#ffffff;fill-opacity:1;fill-rule:evenodd;stroke:none"
           d="m 0,0 c 0,4.537 2.722,8.425 6.538,8.425 3.848,0 6.541,-3.864 6.541,-8.425 0,-4.621 -2.765,-8.425 -6.541,-8.425 C 2.745,-8.425 0,-4.521 0,0 m 3.152,0 c 0,-2.445 1.249,-4.851 3.386,-4.851 2.156,0 3.388,2.386 3.388,4.851 0,2.462 -1.228,4.87 -3.388,4.87 C 4.389,4.87 3.152,2.451 3.152,0 M -53.83,7.911 -56.456,-7.912 h 2.73 l 1.127,7.332 3.388,-7.332 h 0.782 l 3.173,7.227 1.089,-7.227 h 2.909 l -2.596,15.821 h -0.542 l -4.337,-9.786 -4.599,9.786 z M -39.926,6.595 V -7.912 h 7.972 v 3.329 h -5 v 3.129 h 3.009 v 3.241 h -3.009 v 2.86 h 4.928 v 3.262 h -7.898 z m 13.678,-6.323 -4.609,-8.184 h 3.351 l 2.955,5.369 3.115,-5.369 h 3.768 l -5.055,8.512 4.131,7.309 h -3.332 l -2.487,-4.517 -2.644,4.517 h -2.963 z m 10.141,6.323 V -7.912 h 3.061 V 7.909 h -3.06 z m -19.322,2.361 0.618,0.761 -0.752,0.93 -1.372,-1.691 z M -2.03,3.644 c -1.648,1.599 -3.951,2.002 -5.479,-0.047 -1.379,-1.845 -1.41,-5.244 -0.009,-7.076 1.825,-2.402 4.704,-1.259 6.474,0.587 v -4.013 c -2.458,-2.046 -5.676,-2.091 -8.04,0.203 -3.149,3.046 -3.432,9.192 -0.657,12.716 2.301,2.891 5.993,3.22 8.697,0.934 V 2.532 Z" /></g><g
         transform="translate(322.6187,295.2129)"
         id="g965"
         style="fill:#ffffff"><path
           inkscape:connector-curvature="0"
           id="path967"
           style="fill:#ffffff;fill-opacity:1;fill-rule:evenodd;stroke:none"
           d="M 0,0 V 9 H 0.67 C 1.999,9 3.045,8.603 3.792,7.798 4.545,6.994 4.922,5.895 4.922,4.486 4.922,3.085 4.545,1.986 3.792,1.191 3.045,0.398 1.999,0 0.67,0 Z m -57.43,4.486 c 0,-2.429 1.247,-4.821 3.371,-4.821 2.143,0 3.369,2.377 3.369,4.821 0,2.45 -1.22,4.851 -3.369,4.851 -2.138,0 -3.371,-2.404 -3.371,-4.851 m -3.133,0 c 0,4.584 2.76,8.386 6.504,8.386 3.83,0 6.505,-3.84 6.505,-8.386 0,-4.548 -2.709,-8.38 -6.505,-8.38 -3.717,0 -6.504,3.832 -6.504,8.38 m -42.205,-7.866 0.011,15.737 h 0.721 l 7.502,-8.675 v 8.675 h 2.813 V -3.38 h -0.832 l -7.404,8.584 V -3.38 Z m 16.738,4.998 1.698,4.931 1.656,-4.931 z m -4.775,-4.998 h 3.065 l 0.828,2.291 h 5.178 l 0.805,-2.291 h 3.191 l -6.177,15.737 h -0.581 z m 21.927,11.494 c -1.639,1.593 -3.93,1.991 -5.453,-0.049 -0.685,-0.917 -1.029,-2.097 -1.029,-3.539 0,-1.437 0.339,-2.602 1.021,-3.502 1.823,-2.394 4.683,-1.246 6.439,0.591 v -3.993 c -2.454,-2.047 -5.654,-2.072 -7.998,0.201 -1.69,1.641 -2.542,4.032 -2.542,6.663 0,2.249 0.614,4.364 1.89,5.984 2.299,2.892 5.979,3.192 8.65,0.932 V 7.008 Z m 3.509,2.938 V -3.38 h 3.045 v 15.737 h -3.044 z m 19.101,0 V -3.38 h 2.807 v 8.584 l 7.407,-8.531 h 0.83 v 15.684 h -2.81 V 3.682 l -7.505,8.675 h -0.727 z m 16.736,-9.434 1.699,4.931 1.656,-4.931 z m -4.775,-4.998 h 3.069 l 0.823,2.291 h 5.177 l 0.812,-2.291 h 3.186 l -6.172,15.737 h -0.582 z m 14.019,0 h 8.021 V 0 h -4.971 v 12.357 h -3.047 z M 9.709,11.052 V -3.38 h 7.928 v 3.313 h -4.973 v 3.109 h 3.234 v 3.226 h -3.234 v 2.846 h 4.903 v 3.243 c -2.949,0 -4.909,-0.013 -7.855,-0.013 z m -12.72,0 V -3.38 h 3.393 c 1.597,0 3.057,0.184 4.471,1.184 2.058,1.461 3.15,3.744 3.15,6.682 0,2.442 -0.677,4.364 -2.023,5.766 -1.35,1.403 -3.221,2.105 -5.598,2.105 h -3.39 z" /></g><g
         transform="translate(423.5156,298.8501)"
         id="g969"
         style="fill:#ffffff"><path
           inkscape:connector-curvature="0"
           id="path971"
           style="fill:#ffffff;fill-opacity:1;fill-rule:evenodd;stroke:none"
           d="m 0,0 c -1.945,0.007 -3.529,-1.58 -3.537,-3.542 -0.007,-1.988 1.543,-3.563 3.515,-3.572 1.979,-0.008 3.548,1.557 3.56,3.552 C 3.55,-1.603 1.965,-0.007 0,0 M 0.008,0.55 C 2.307,0.544 4.127,-1.278 4.12,-3.566 4.111,-5.863 2.271,-7.696 -0.02,-7.685 c -2.287,0.01 -4.1,1.846 -4.089,4.143 0.006,2.284 1.832,4.097 4.117,4.092" /></g><g
         transform="translate(422.6655,295.3848)"
         id="g973"
         style="fill:#ffffff"><path
           inkscape:connector-curvature="0"
           id="path975"
           style="fill:#ffffff;fill-opacity:1;fill-rule:evenodd;stroke:none"
           d="M 0,0 C 0.231,0 0.453,-0.01 0.675,0.002 0.902,0.015 1.133,0.026 1.355,0.078 1.717,0.159 1.907,0.423 1.915,0.797 1.925,1.207 1.778,1.45 1.438,1.549 0.966,1.682 0.482,1.632 0,1.636 Z M -0.01,-0.533 V -2.326 H -0.795 V 2.156 C -0.79,2.161 -0.781,2.174 -0.77,2.174 0.07,2.162 0.915,2.257 1.749,2.095 2.605,1.928 3.005,0.904 2.497,0.211 2.341,0 2.146,-0.108 1.679,-0.228 1.74,-0.251 1.777,-0.268 1.815,-0.28 2.291,-0.428 2.622,-0.872 2.631,-1.389 2.638,-1.699 2.633,-2.012 2.633,-2.332 H 1.954 c -0.013,0.136 -0.024,0.267 -0.034,0.398 -0.017,0.222 -0.012,0.449 -0.053,0.665 -0.079,0.408 -0.314,0.634 -0.722,0.677 -0.373,0.04 -0.749,0.04 -1.155,0.059" /></g></g></g></svg>