<?xml version="1.0" encoding="UTF-8" standalone="no"?>
<!-- Created with Inkscape (http://www.inkscape.org/) -->

<svg
   xmlns:dc="http://purl.org/dc/elements/1.1/"
   xmlns:cc="http://creativecommons.org/ns#"
   xmlns:rdf="http://www.w3.org/1999/02/22-rdf-syntax-ns#"
   xmlns:svg="http://www.w3.org/2000/svg"
   xmlns="http://www.w3.org/2000/svg"
   xmlns:sodipodi="http://sodipodi.sourceforge.net/DTD/sodipodi-0.dtd"
   xmlns:inkscape="http://www.inkscape.org/namespaces/inkscape"
   version="1.1"
   id="svg815"
   xml:space="preserve"
   width="796.87201"
   height="176.89301"
   viewBox="0 0 1056 816"
   sodipodi:docname="TecNM-UnaLinea.svg"
   inkscape:version="0.92.2 (5c3e80d, 2017-08-06)"><metadata
     id="metadata821"><rdf:RDF><cc:Work
         rdf:about=""><dc:format>image/svg+xml</dc:format><dc:type
           rdf:resource="http://purl.org/dc/dcmitype/StillImage" /><dc:title /></cc:Work></rdf:RDF></metadata><defs
     id="defs819"><radialGradient
       fx="0"
       fy="0"
       cx="0"
       cy="0"
       r="1"
       gradientUnits="userSpaceOnUse"
       gradientTransform="matrix(-394.76123,-83.057816,-64.181915,305.04694,572.96484,28.914551)"
       spreadMethod="pad"
       id="radialGradient843"><stop
         style="stop-opacity:1;stop-color:#396fbf"
         offset="0"
         id="stop837" /><stop
         style="stop-opacity:1;stop-color:#11203d"
         offset="0.7410756"
         id="stop839" /><stop
         style="stop-opacity:1;stop-color:#11203d"
         offset="1"
         id="stop841" /></radialGradient><radialGradient
       fx="0"
       fy="0"
       cx="0"
       cy="0"
       r="1"
       gradientUnits="userSpaceOnUse"
       gradientTransform="matrix(-397.384,-83.60965,-64.608337,307.07367,574.26025,28.914551)"
       spreadMethod="pad"
       id="radialGradient865"><stop
         style="stop-opacity:1;stop-color:#396fbf"
         offset="0"
         id="stop859" /><stop
         style="stop-opacity:1;stop-color:#11203d"
         offset="0.7410756"
         id="stop861" /><stop
         style="stop-opacity:1;stop-color:#11203d"
         offset="1"
         id="stop863" /></radialGradient><radialGradient
       fx="0"
       fy="0"
       cx="0"
       cy="0"
       r="1"
       gradientUnits="userSpaceOnUse"
       gradientTransform="matrix(-404.7739,-85.164482,-65.809822,312.78412,574.26074,59.378906)"
       spreadMethod="pad"
       id="radialGradient887"><stop
         style="stop-opacity:1;stop-color:#396fbf"
         offset="0"
         id="stop881" /><stop
         style="stop-opacity:1;stop-color:#11203d"
         offset="0.7410756"
         id="stop883" /><stop
         style="stop-opacity:1;stop-color:#11203d"
         offset="1"
         id="stop885" /></radialGradient><clipPath
       clipPathUnits="userSpaceOnUse"
       id="clipPath919"><path
         d="M 0,612 H 792 V 0 H 0 Z"
         id="path917"
         inkscape:connector-curvature="0" /></clipPath></defs><sodipodi:namedview
     pagecolor="#ffffff"
     bordercolor="#666666"
     borderopacity="1"
     objecttolerance="10"
     gridtolerance="10"
     guidetolerance="10"
     inkscape:pageopacity="0"
     inkscape:pageshadow="2"
     inkscape:window-width="1366"
     inkscape:window-height="705"
     id="namedview817"
     showgrid="false"
     inkscape:zoom="0.32965687"
     inkscape:cx="-158.5427"
     inkscape:cy="207.14358"
     inkscape:window-x="-8"
     inkscape:window-y="-8"
     inkscape:window-maximized="1"
     inkscape:current-layer="g823" /><g
     id="g823"
     inkscape:groupmode="layer"
     inkscape:label="Manual_de_Identidad_Grafica"
     transform="matrix(1.3333333,0,0,-1.3333333,0,816)"><g
       id="g4755"
       transform="matrix(4.6129532,0,0,4.6129532,-1512.3077,-207.5183)"><g
         transform="translate(168.3677,94.251)"
         id="g921"><path
           inkscape:connector-curvature="0"
           id="path923"
           style="fill:#002f6d;fill-opacity:1;fill-rule:evenodd;stroke:none"
           d="m 0,0 c 2.172,-3.682 -1.107,-13.503 -5.619,-14.325 -11.807,2.52 -18.977,18.476 -17.887,29.539 0.171,-0.026 0.336,-0.046 0.5,-0.066 0.042,-0.475 0.239,-1.317 0.363,-1.781 C -20.424,4.685 -9.588,-4.834 0,0 m -32.335,-27.742 c -1.075,11.731 -0.41,33.124 4.675,43.848 1.145,-0.224 2.237,-0.573 3.411,-0.777 -0.013,-0.19 -0.112,-1.562 -0.116,-1.689 -1.026,-15.843 5.216,-25.885 14.391,-30.494 -1.012,-10.295 -14.038,-12.602 -22.361,-10.888 m 44.219,62.027 c 1.844,-4.721 1.643,-11.14 -2.543,-13.727 -1.448,-0.897 -2.027,0.096 -0.971,1.188 0.822,0.852 0.785,2.641 0.522,3.573 -1.093,3.882 -8.313,6.41 -11.736,7.458 1.32,4.892 0.627,9.835 -1.384,14.436 C 2.63,45.239 9.168,41.216 11.884,34.285 M -6.82,4.902 c 2.78,-2.382 6.991,-0.634 4.695,-2.374 -7.537,-5.724 -18.632,4.232 -20.12,12.568 0.336,-0.02 0.667,-0.02 0.988,0 1.55,-3.373 2.029,-4.715 5.272,-7.159 1.793,-1.347 3.459,-1.97 5.854,-2.177 1.991,-0.173 1.704,0.51 3.311,-0.858 m 7.112,25.011 c 1.325,-0.46 -0.265,-4.851 -1.23,-4.594 -1.037,0.133 -2.005,0.044 -2.783,-0.618 0.684,-1.44 2.315,-4.947 2.842,-7.283 0.19,-0.872 0.442,-2.952 -0.542,-3.525 C -2.09,13.49 -3.259,13.596 -4.833,13.411 L -5.059,11.772 C -4.95,11.55 -4.656,11.458 -4.668,11.293 -4.689,11.068 -5.211,10.139 -6.262,10.186 -6.121,9.634 -5.733,9.404 -5.874,8.558 -5.97,8.041 -6.941,7.959 -7.594,7.616 -8.236,7.27 -7.935,7.062 -8.318,7.033 c -0.078,0.008 -0.165,0.02 -0.257,0.041 -9.167,1.61 -9.486,13.177 -2.619,17.602 l 2.103,-0.679 c 0.588,-0.193 0.527,-0.232 -0.121,-0.45 -0.262,-0.089 -0.554,-0.138 -0.838,-0.195 -0.729,-0.138 -0.793,-0.13 -0.04,-0.393 0.868,-0.301 1.908,-0.502 2.535,-0.734 0.334,-0.113 0.325,-0.227 0.572,0.119 0.267,0.358 0.269,0.798 0.069,1.287 0.462,-0.007 0.87,0.043 1.181,0.23 0.665,0.393 0.442,0.633 -0.245,0.588 -0.45,-0.019 -0.909,-0.162 -1.336,-0.044 l -2.914,0.828 c 1.11,0.984 3.361,2.028 5.83,1.875 l 1.079,4.053 z M -51.052,-8.563 c -1.744,-1.131 -3.859,12.697 0,15.581 4.26,2.953 8.313,5.503 12.924,8.401 l 2.995,1.859 c 0.651,-0.076 1.299,-0.153 1.945,-0.24 -0.55,-0.621 -1.678,-1.89 -1.873,-2.11 C -40.645,8.79 -47.092,-2.14 -51.052,-8.563 M -37.03,-26.37 c -5.281,-0.346 -14.489,0.234 -16.48,6.254 5.857,13.149 13.097,25.703 22.211,36.878 0.696,-0.114 1.394,-0.233 2.092,-0.359 C -35.112,2.468 -36.79,-11.32 -37.03,-26.37 M -16.2,9.412 c -1.982,1.503 -3.831,4.254 -4.634,6.442 1.2,0.416 2.201,1.325 2.758,2.459 -0.279,-2.614 0.375,-5.409 1.888,-7.698 0.17,-0.259 0.333,-0.511 0.526,-0.743 0.573,-0.66 0.168,-0.997 -0.538,-0.46 m -35.834,0.84 -0.021,6.472 c -0.007,0.547 0.344,0.88 0.68,0.93 4.594,0.574 10.183,0.232 14.876,-0.23 l 0.341,-0.032 c -4.739,-1.945 -11.762,-6.109 -14.728,-8.012 -0.385,-0.19 -0.731,-0.163 -0.995,0.032 -0.253,0.184 -0.153,0.529 -0.153,0.84 m 0.701,9.084 c -1.256,-0.029 -1.216,4.555 -0.037,4.693 9.171,1.09 17.364,1.204 26.317,0.6 -2.629,-1.64 -3.095,-5.285 -0.973,-7.522 -8.152,1.836 -16.945,2.462 -25.307,2.229 m -0.119,6.171 c -0.598,-0.045 -1.818,8.797 0.4,8.177 6.964,-1.944 14.218,-4.112 21.216,-4.891 -1.301,-0.723 -2.464,-1.549 -3.46,-2.451 -2.419,0.017 -4.832,-0.012 -7.202,-0.104 -3.654,-0.148 -7.312,-0.462 -10.954,-0.731 m -0.16,10.438 c -0.591,0.173 -0.971,4.548 0.145,4.347 7.322,-1.295 14.447,-2.41 21.628,-4.456 0.919,-2.537 2.179,-3.894 3.539,-5.446 -4.164,-1.492 -19.139,3.721 -25.312,5.555 m 0,6.304 c -0.704,0.114 -0.712,3.618 -0.05,3.526 7.327,-0.949 14.249,-1.712 21.405,-3.818 -0.315,-1.478 -0.321,-2.956 -0.059,-4.366 -7.059,2.076 -14.056,3.509 -21.296,4.658 m -0.082,5.002 c -0.582,0.049 -0.709,2.884 0.092,2.869 9.403,-0.23 17.36,-0.816 26.528,-3.692 -1.105,-0.944 -1.899,-2.237 -2.219,-3.705 -8.079,2.768 -15.996,3.798 -24.401,4.528 m 34.117,-26.654 c -0.057,3.027 -2.367,4.766 -5.21,5.295 -2.969,0.559 -6.42,0.65 -8.592,0.45 6.089,4.972 18.611,5.091 25.358,2.395 -5.064,-0.077 -9.906,-3.285 -11.556,-8.14 m 3.833,21.652 c 3.311,-1.401 6.741,-2.911 9.899,-4.604 -0.015,-0.713 -0.109,-1.467 -0.168,-2.191 -0.235,-1.746 -0.793,-3.512 -1.248,-5.218 -4.887,2.12 -13.26,2.437 -18.489,0.981 -3.637,1.926 -5.694,6.046 -4.898,10.197 0.086,-0.035 0.811,-0.25 1.211,-0.361 0.139,-3.628 3.161,-6.526 6.875,-6.526 3.798,0 6.887,3.039 6.887,6.783 0,0.314 -0.028,0.63 -0.069,0.939 M -22.47,22.151 c 0.927,0 1.682,-0.761 1.682,-1.688 0,-0.929 -0.755,-1.677 -1.682,-1.677 -0.928,0 -1.685,0.748 -1.685,1.677 0,0.927 0.751,1.688 1.685,1.688 m 0,1.626 c 1.831,0 3.316,-1.478 3.316,-3.314 0,-1.828 -1.485,-3.311 -3.316,-3.311 -1.834,0 -3.317,1.483 -3.317,3.311 0,1.836 1.483,3.314 3.317,3.314 m 4.072,19.762 c 0.73,-0.2 1.167,-0.954 0.972,-1.685 -0.201,-0.737 -0.949,-1.166 -1.688,-0.972 -0.73,0.196 -1.159,0.949 -0.969,1.681 0.198,0.733 0.949,1.173 1.685,0.976 m -0.991,1.92 c 2.45,-0.654 3.895,-3.165 3.245,-5.612 -0.649,-2.434 -3.158,-3.892 -5.602,-3.24 -2.443,0.656 -3.895,3.164 -3.242,5.61 0.653,2.444 3.156,3.895 5.599,3.242 m -3.807,-24.434 h 1.458 c 0.148,0 0.274,-0.127 0.274,-0.275 v -0.563 c 0,-0.154 -0.126,-0.279 -0.274,-0.279 h -1.458 c -0.158,0 -0.28,0.125 -0.28,0.279 v 0.563 c 0,0.148 0.122,0.275 0.28,0.275 m -18.853,49.126 c -2.229,-0.534 -7.95,-2.431 -9.985,-3.412 V 54.623 c 0,-3.466 -0.345,-2.683 3.296,-2.798 19.616,-0.64 30.118,-3.287 44.832,-12.388 -0.299,3.64 -1.471,7.171 -3.221,10.347 -9.85,7.196 -19.119,10.737 -31.252,11.57 C -3.983,69.563 26.894,36.575 15.433,2.503 12.658,3.239 6.986,5.446 1.758,1.033 4.293,-6.03 2.267,-17.066 -7.187,-16.421 c 0.337,-3.255 -1.422,-7.661 -6.199,-11.206 -6.657,-4.081 -16.967,-5.457 -22.085,-2.398 -6.371,-1.04 -11.011,0.845 -16.525,3.549 v -5.825 c 2.971,-1.951 6.415,-3.015 9.947,-3.855 l 2.514,-11.256 c 0.595,-1.196 1.662,-1.853 3.279,-1.853 h 16.977 c 1.442,0.012 2.43,0.697 3.096,1.853 l 2.431,11.575 c 2.239,0.593 4.461,1.329 6.608,2.212 l 8.775,-7.743 c 1.125,-0.513 2.299,-0.573 3.579,0.406 l 12.892,9.541 c 1.028,0.84 1.517,1.933 1.361,3.316 l -4.817,10.604 c 1.464,1.801 2.808,3.685 4.037,5.656 l 11.703,-1.105 c 1.228,0.023 2.08,0.804 2.616,2.428 l 4.829,15.308 c 0.425,1.392 0.259,2.57 -0.791,3.433 l -10.188,5.79 c 0.133,2.315 0.104,4.651 -0.057,6.961 l 10.107,5.98 c 1.11,0.598 1.255,1.856 0.65,3.591 L 32.486,45.729 C 32.17,47.207 31.28,47.93 29.891,48.015 L 18.195,46.697 c -1.263,1.952 -2.641,3.816 -4.139,5.597 l 4.646,10.737 c 0.336,1.293 0.042,2.388 -1.461,3.257 L 4.206,75.587 C 2.955,76.45 1.747,76.709 0.623,75.918 l -8.639,-7.882 c -2.172,0.844 -4.381,1.544 -6.64,2.098 l -2.56,11.455 c -0.416,1.33 -1.426,1.904 -3.185,1.805 h -15.981 c -1.884,-0.062 -2.736,-0.823 -3.119,-1.826 z" /></g><g
         transform="translate(390.5195,111.7427)"
         id="g925"><path
           inkscape:connector-curvature="0"
           id="path927"
           style="fill:#002f6d;fill-opacity:1;fill-rule:evenodd;stroke:none"
           d="m 0,0 c 0,-3.653 1.767,-7.243 4.796,-7.243 3.06,0 4.795,3.561 4.795,7.243 0,3.689 -1.732,7.292 -4.795,7.292 C 1.752,7.292 0,3.677 0,0 m 4.796,12.61 c 3.782,0 7.212,-3.062 8.571,-7.658 0.462,-1.528 0.686,-3.18 0.686,-4.952 0,-6.828 -3.861,-12.593 -9.257,-12.593 -5.351,0 -9.244,5.817 -9.255,12.556 -0.008,6.823 3.847,12.647 9.255,12.647 M -63.837,0 c 0,-3.653 1.767,-7.243 4.799,-7.243 3.047,0 4.793,3.568 4.793,7.243 0,3.689 -1.739,7.292 -4.793,7.292 -3.047,0 -4.799,-3.615 -4.799,-7.292 m -4.461,0 c 0,1.759 0.236,3.4 0.694,4.927 1.388,4.616 4.752,7.683 8.566,7.683 5.444,0 9.257,-5.775 9.257,-12.61 0,-6.89 -3.917,-12.593 -9.257,-12.593 -5.365,0 -9.26,5.844 -9.26,12.593 m -27.495,0 c 0,-3.653 1.768,-7.243 4.795,-7.243 3.053,0 4.797,3.568 4.797,7.243 0,3.689 -1.742,7.292 -4.797,7.292 -3.039,0 -4.795,-3.615 -4.795,-7.292 m -4.464,0 c 0,6.899 3.931,12.61 9.259,12.61 5.4,0 9.26,-5.711 9.26,-12.61 0,-6.833 -3.86,-12.593 -9.26,-12.593 -5.328,0 -9.259,5.8 -9.259,12.593 m -49.349,9.867 v -21.689 h 11.286 v 4.971 h -7.08 v 4.676 h 4.08 v 4.859 h -4.08 v 4.269 h 6.976 v 4.884 h -11.192 z m 31.379,0 v -21.689 h 4.005 V 1.087 l 10.597,-12.909 h 1.117 v 23.659 h -3.998 V -1.207 l -10.671,13.044 -1.055,0.019 z m 38.74,0 v -21.689 h 11.411 v 5.073 h -7.077 v 18.586 h -4.339 z m 51.783,-21.689 h 4.334 v 23.659 h -4.334 z m -3.645,11.167 v 1.962 h -7.72 v -4.816 h 3.438 v -3.428 c -0.764,-0.306 -1.545,-0.507 -2.345,-0.507 -3.406,0 -5.529,3.307 -5.529,7.627 0,2.12 0.535,3.894 1.607,5.317 1.742,2.313 4.463,2.708 6.672,1.35 0.832,-0.515 1.671,-1.325 2.516,-2.432 l 0.462,5.924 c -0.892,0.768 -1.824,1.344 -2.797,1.726 -3.478,1.383 -7.465,0.354 -10.071,-3.021 -1.847,-2.39 -2.77,-5.42 -2.77,-9.072 0,-7.267 4.036,-12.568 9.613,-12.568 2.4,0 4.792,1.001 6.924,2.402 z m -89.792,4.446 v 6.6 c -3.83,3.428 -9.06,2.936 -12.314,-1.391 -1.821,-2.442 -2.693,-5.617 -2.693,-9 0,-3.959 1.211,-7.547 3.622,-10.013 3.332,-3.421 7.887,-3.383 11.385,-0.307 v 6 c -2.503,-2.75 -6.575,-4.482 -9.165,-0.872 -0.969,1.347 -1.45,3.091 -1.45,5.258 0,2.158 0.486,3.937 1.462,5.319 2.163,3.064 5.424,2.454 7.747,0.069 z m 62.399,10.601 1.518,1.976 -1.07,1.395 -2.56,-3.342 z M -5.78,3.791 v 6.6 c -3.818,3.428 -9.052,2.925 -12.311,-1.391 -1.817,-2.442 -2.691,-5.617 -2.691,-9 0,-3.959 1.205,-7.547 3.619,-10.013 3.35,-3.44 7.901,-3.371 11.383,-0.307 v 6 c -2.506,-2.75 -6.566,-4.482 -9.163,-0.872 -0.976,1.347 -1.461,3.091 -1.461,5.258 0,2.158 0.497,3.937 1.473,5.319 2.16,3.064 5.425,2.463 7.755,0.069 z M -162.397,-11.822 V 6.884 l -5.772,-0.009 v 4.962 h 15.847 V 6.884 h -5.733 v -18.706 z" /></g><g
         transform="translate(693.0835,112.6792)"
         id="g929"><path
           inkscape:connector-curvature="0"
           id="path931"
           style="fill:#002f6d;fill-opacity:1;fill-rule:evenodd;stroke:none"
           d="m 0,0 c 0,6.739 4.045,12.514 9.709,12.514 5.718,0 9.719,-5.743 9.719,-12.514 0,-6.867 -4.105,-12.522 -9.719,-12.522 C 4.079,-12.522 0,-6.719 0,0 m 4.685,0 c 0,-3.638 1.853,-7.211 5.024,-7.211 3.21,0 5.036,3.549 5.036,7.211 0,3.654 -1.826,7.228 -5.036,7.228 C 6.521,7.228 4.685,3.64 4.685,0 m -84.65,11.75 -3.907,-23.507 h 4.065 l 1.666,10.889 5.032,-10.889 h 1.166 l 4.715,10.729 1.614,-10.729 h 4.324 l -3.853,23.507 h -0.805 l -6.448,-14.54 -6.83,14.54 z m 20.652,-1.957 v -21.55 h 11.844 v 4.949 h -7.43 v 4.645 h 4.474 v 4.812 h -4.474 v 4.247 h 7.329 v 4.854 h -11.741 z m 20.318,-9.4 -6.845,-12.15 h 4.982 l 4.383,7.974 4.634,-7.974 h 5.595 l -7.51,12.646 6.133,10.861 h -4.949 l -3.693,-6.711 -3.931,6.711 h -4.394 z m 15.066,9.4 v -21.55 h 4.55 V 11.75 h -4.55 z m -28.702,3.509 0.922,1.124 -1.122,1.384 -2.034,-2.508 z M -3.02,5.409 c -2.444,2.378 -5.87,2.973 -8.138,-0.069 -2.043,-2.738 -2.088,-7.787 -0.009,-10.515 2.705,-3.566 6.985,-1.863 9.614,0.878 v -5.969 c -3.65,-3.036 -8.426,-3.104 -11.947,0.311 -4.673,4.53 -5.094,13.649 -0.979,18.881 3.428,4.297 8.909,4.786 12.926,1.39 v -6.56 z" /></g><g
         transform="translate(571.6011,106.3896)"
         id="g933"><path
           inkscape:connector-curvature="0"
           id="path935"
           style="fill:#002f6d;fill-opacity:1;fill-rule:evenodd;stroke:none"
           d="m 0,0 v 13.362 h 0.983 c 1.98,0 3.534,-0.589 4.647,-1.787 C 6.741,10.389 7.312,8.753 7.312,6.66 7.312,4.579 6.741,2.946 5.63,1.762 4.517,0.588 2.963,0 0.983,0 Z m -85.319,6.66 c 0,-3.616 1.853,-7.164 5.009,-7.164 3.185,0 5.001,3.531 5.001,7.164 0,3.64 -1.806,7.203 -5.001,7.203 -3.18,0 -5.009,-3.575 -5.009,-7.203 m -4.653,0 c 0,6.808 4.099,12.455 9.662,12.455 5.686,0 9.662,-5.708 9.662,-12.455 0,-6.758 -4.023,-12.452 -9.662,-12.452 -5.518,0 -9.662,5.694 -9.662,12.452 m -62.693,-11.686 0.015,23.372 h 1.072 l 11.142,-12.884 v 12.884 h 4.184 V -5.026 h -1.236 L -148.494,7.73 V -5.026 Z m 24.864,7.421 2.521,7.327 2.462,-7.327 z m -7.089,-7.421 h 4.546 l 1.236,3.4 h 7.688 l 1.195,-3.4 h 4.74 l -9.175,23.372 h -0.862 z m 32.567,17.073 c -2.437,2.367 -5.837,2.955 -8.105,-0.074 -1.011,-1.359 -1.52,-3.119 -1.52,-5.256 0,-2.131 0.507,-3.865 1.515,-5.199 2.705,-3.554 6.958,-1.853 9.558,0.877 v -5.933 c -3.641,-3.04 -8.393,-3.075 -11.879,0.301 -2.509,2.431 -3.778,5.99 -3.778,9.897 0,3.341 0.922,6.474 2.814,8.883 3.413,4.3 8.877,4.752 12.843,1.382 v -6.524 z m 5.21,4.367 v -21.44 h 4.534 v 23.372 h -4.53 z m 28.378,0 v -21.44 h 4.166 V 7.73 l 11.005,-12.682 h 1.235 v 23.298 h -4.177 V 5.462 l -11.15,12.884 h -1.079 z m 24.86,-14.019 2.523,7.327 2.459,-7.327 z m -7.096,-7.421 h 4.558 l 1.223,3.4 h 7.695 l 1.206,-3.4 h 4.727 l -9.166,23.372 h -0.864 z m 20.83,0 h 11.912 V 0 h -7.384 v 18.346 h -4.526 z m 44.563,21.44 v -21.44 h 11.77 v 4.922 H 18.8 v 4.625 h 4.804 V 9.297 H 18.8 v 4.235 h 7.288 v 4.814 c -4.384,0 -7.292,-0.017 -11.664,-0.017 z m -18.901,0 v -21.44 h 5.038 c 2.375,0 4.546,0.27 6.639,1.755 3.063,2.174 4.681,5.569 4.681,9.931 0,3.62 -1.004,6.474 -3.003,8.565 -2.006,2.078 -4.784,3.121 -8.317,3.121 h -5.034 z" /></g></g></g></svg>