<?xml version="1.0" encoding="UTF-8" standalone="no"?>
<!-- Created with Inkscape (http://www.inkscape.org/) -->

<svg
   xmlns:dc="http://purl.org/dc/elements/1.1/"
   xmlns:cc="http://creativecommons.org/ns#"
   xmlns:rdf="http://www.w3.org/1999/02/22-rdf-syntax-ns#"
   xmlns:svg="http://www.w3.org/2000/svg"
   xmlns="http://www.w3.org/2000/svg"
   xmlns:sodipodi="http://sodipodi.sourceforge.net/DTD/sodipodi-0.dtd"
   xmlns:inkscape="http://www.inkscape.org/namespaces/inkscape"
   version="1.1"
   id="svg815"
   xml:space="preserve"
   width="261.983"
   height="249.821"
   viewBox="0 0 1056 816"
   sodipodi:docname="TecNM-Vertical.svg"
   inkscape:version="0.92.2 (5c3e80d, 2017-08-06)"><metadata
     id="metadata821"><rdf:RDF><cc:Work
         rdf:about=""><dc:format>image/svg+xml</dc:format><dc:type
           rdf:resource="http://purl.org/dc/dcmitype/StillImage" /><dc:title /></cc:Work></rdf:RDF></metadata><defs
     id="defs819"><radialGradient
       fx="0"
       fy="0"
       cx="0"
       cy="0"
       r="1"
       gradientUnits="userSpaceOnUse"
       gradientTransform="matrix(-394.76123,-83.057816,-64.181915,305.04694,572.96484,28.914551)"
       spreadMethod="pad"
       id="radialGradient843"><stop
         style="stop-opacity:1;stop-color:#396fbf"
         offset="0"
         id="stop837" /><stop
         style="stop-opacity:1;stop-color:#11203d"
         offset="0.7410756"
         id="stop839" /><stop
         style="stop-opacity:1;stop-color:#11203d"
         offset="1"
         id="stop841" /></radialGradient><radialGradient
       fx="0"
       fy="0"
       cx="0"
       cy="0"
       r="1"
       gradientUnits="userSpaceOnUse"
       gradientTransform="matrix(-397.384,-83.60965,-64.608337,307.07367,574.26025,28.914551)"
       spreadMethod="pad"
       id="radialGradient865"><stop
         style="stop-opacity:1;stop-color:#396fbf"
         offset="0"
         id="stop859" /><stop
         style="stop-opacity:1;stop-color:#11203d"
         offset="0.7410756"
         id="stop861" /><stop
         style="stop-opacity:1;stop-color:#11203d"
         offset="1"
         id="stop863" /></radialGradient><radialGradient
       fx="0"
       fy="0"
       cx="0"
       cy="0"
       r="1"
       gradientUnits="userSpaceOnUse"
       gradientTransform="matrix(-404.7739,-85.164482,-65.809822,312.78412,574.26074,59.378906)"
       spreadMethod="pad"
       id="radialGradient887"><stop
         style="stop-opacity:1;stop-color:#396fbf"
         offset="0"
         id="stop881" /><stop
         style="stop-opacity:1;stop-color:#11203d"
         offset="0.7410756"
         id="stop883" /><stop
         style="stop-opacity:1;stop-color:#11203d"
         offset="1"
         id="stop885" /></radialGradient><clipPath
       clipPathUnits="userSpaceOnUse"
       id="clipPath919"><path
         d="M 0,612 H 792 V 0 H 0 Z"
         id="path917"
         inkscape:connector-curvature="0" /></clipPath></defs><sodipodi:namedview
     pagecolor="#ffffff"
     bordercolor="#666666"
     borderopacity="1"
     objecttolerance="10"
     gridtolerance="10"
     guidetolerance="10"
     inkscape:pageopacity="0"
     inkscape:pageshadow="2"
     inkscape:window-width="1366"
     inkscape:window-height="705"
     id="namedview817"
     showgrid="false"
     inkscape:zoom="0.32965687"
     inkscape:cx="-158.5427"
     inkscape:cy="207.14358"
     inkscape:window-x="-8"
     inkscape:window-y="-8"
     inkscape:window-maximized="1"
     inkscape:current-layer="g823" /><g
     id="g823"
     inkscape:groupmode="layer"
     inkscape:label="Manual_de_Identidad_Grafica"
     transform="matrix(1.3333333,0,0,-1.3333333,0,816)"><g
       id="g4745"
       transform="matrix(3.843668,0,0,3.843668,-1880.1064,-853.66081)"><g
         transform="translate(599.9214,311.7964)"
         id="g937"><path
           inkscape:connector-curvature="0"
           id="path939"
           style="fill:#002f6d;fill-opacity:1;fill-rule:evenodd;stroke:none"
           d="m 0,0 c 2.174,-3.683 -1.112,-13.53 -5.634,-14.357 -11.831,2.531 -19.017,18.523 -17.928,29.606 0.169,-0.023 0.337,-0.043 0.502,-0.059 0.039,-0.475 0.243,-1.319 0.363,-1.787 C -20.473,4.7 -9.611,-4.836 0,0 m -32.409,-27.8 c -1.082,11.76 -0.415,33.197 4.686,43.946 1.14,-0.228 2.244,-0.574 3.418,-0.779 -0.014,-0.187 -0.111,-1.565 -0.118,-1.69 C -25.451,-2.2 -19.194,-12.265 -10,-16.885 -11.014,-27.211 -24.071,-29.514 -32.409,-27.8 m 44.311,62.163 c 1.851,-4.729 1.652,-11.165 -2.543,-13.758 -1.454,-0.896 -2.03,0.096 -0.97,1.197 0.821,0.851 0.783,2.645 0.52,3.579 -1.096,3.89 -8.332,6.417 -11.765,7.472 1.324,4.909 0.633,9.857 -1.389,14.467 C 2.632,45.345 9.182,41.313 11.902,34.363 M -6.844,4.918 c 2.79,-2.385 7.012,-0.636 4.71,-2.382 -7.556,-5.729 -18.672,4.241 -20.163,12.595 0.335,-0.014 0.666,-0.016 0.992,-10e-4 1.55,-3.38 2.03,-4.718 5.279,-7.169 1.797,-1.35 3.471,-1.974 5.867,-2.185 1.997,-0.175 1.709,0.513 3.315,-0.858 m 7.128,25.064 c 1.329,-0.461 -0.26,-4.858 -1.229,-4.601 -1.039,0.138 -2.005,0.045 -2.786,-0.625 0.682,-1.441 2.315,-4.955 2.845,-7.296 0.197,-0.871 0.442,-2.955 -0.539,-3.533 -0.678,-0.402 -1.842,-0.295 -3.421,-0.481 l -0.229,-1.64 c 0.112,-0.228 0.408,-0.32 0.392,-0.482 -0.02,-0.229 -0.543,-1.157 -1.601,-1.109 C -6.139,9.666 -5.75,9.428 -5.894,8.582 -5.984,8.061 -6.96,7.98 -7.613,7.633 -8.256,7.29 -7.955,7.084 -8.342,7.049 c -0.078,0.014 -0.166,0.028 -0.26,0.044 -9.183,1.611 -9.504,13.21 -2.621,17.65 l 2.105,-0.69 c 0.59,-0.193 0.532,-0.232 -0.12,-0.449 -0.264,-0.086 -0.55,-0.14 -0.833,-0.194 -0.733,-0.144 -0.803,-0.132 -0.049,-0.394 0.875,-0.308 1.916,-0.507 2.551,-0.736 0.328,-0.117 0.316,-0.226 0.564,0.116 0.265,0.361 0.271,0.8 0.074,1.296 0.458,-0.012 0.868,0.041 1.182,0.228 0.665,0.393 0.442,0.634 -0.245,0.597 -0.45,-0.026 -0.914,-0.171 -1.341,-0.05 l -2.926,0.829 c 1.118,0.987 3.372,2.037 5.848,1.877 l 1.087,4.066 z m -51.45,-38.563 c -1.751,-1.13 -3.869,12.729 0,15.621 4.266,2.961 8.331,5.514 12.954,8.416 l 2.998,1.865 c 0.651,-0.074 1.3,-0.154 1.95,-0.244 -0.553,-0.616 -1.681,-1.887 -1.881,-2.11 -5.593,-6.156 -12.053,-17.106 -16.021,-23.548 m 14.048,-17.845 c -5.291,-0.339 -14.521,0.239 -16.513,6.267 5.868,13.183 13.127,25.759 22.257,36.961 0.7,-0.111 1.399,-0.228 2.097,-0.357 -5.916,-13.966 -7.599,-27.782 -7.841,-42.871 M -16.24,9.437 c -1.989,1.503 -3.843,4.268 -4.641,6.457 1.204,0.423 2.2,1.328 2.76,2.465 -0.275,-2.624 0.381,-5.42 1.894,-7.718 0.167,-0.256 0.331,-0.511 0.53,-0.742 0.571,-0.664 0.165,-0.995 -0.543,-0.462 m -35.919,0.846 -0.016,6.48 c -0.002,0.55 0.343,0.889 0.676,0.93 4.611,0.584 10.212,0.239 14.916,-0.225 l 0.343,-0.034 c -4.753,-1.947 -11.792,-6.121 -14.763,-8.023 -0.388,-0.193 -0.734,-0.162 -0.998,0.03 -0.25,0.182 -0.158,0.528 -0.158,0.842 m 0.708,9.105 c -1.258,-0.033 -1.214,4.558 -0.036,4.699 9.188,1.092 17.401,1.212 26.379,0.601 -2.639,-1.64 -3.102,-5.293 -0.979,-7.54 -8.173,1.841 -16.983,2.469 -25.364,2.24 m -0.124,6.177 c -0.591,-0.044 -1.82,8.819 0.408,8.199 6.983,-1.95 14.25,-4.122 21.263,-4.899 -1.307,-0.726 -2.473,-1.554 -3.469,-2.465 -2.431,0.028 -4.839,-0.007 -7.22,-0.101 -3.661,-0.146 -7.324,-0.463 -10.982,-0.734 m -0.154,10.464 c -0.596,0.177 -0.972,4.558 0.146,4.362 7.337,-1.305 14.478,-2.424 21.678,-4.471 0.917,-2.539 2.181,-3.902 3.543,-5.458 -4.172,-1.497 -19.18,3.726 -25.367,5.567 m 10e-4,6.324 c -0.713,0.114 -0.715,3.62 -0.054,3.534 7.344,-0.959 14.279,-1.719 21.454,-3.834 -0.314,-1.48 -0.319,-2.962 -0.057,-4.374 -7.075,2.084 -14.088,3.519 -21.343,4.674 m -0.086,5.007 c -0.591,0.05 -0.711,2.896 0.098,2.876 9.413,-0.231 17.396,-0.811 26.587,-3.697 -1.111,-0.95 -1.909,-2.245 -2.227,-3.713 -8.098,2.768 -16.027,3.805 -24.458,4.534 m 34.192,-26.713 c -0.057,3.04 -2.37,4.779 -5.218,5.312 -2.978,0.559 -6.436,0.65 -8.619,0.441 6.106,4.986 18.663,5.113 25.419,2.403 -5.078,-0.07 -9.927,-3.288 -11.582,-8.156 m 3.842,21.702 c 3.322,-1.406 6.758,-2.916 9.921,-4.618 -0.013,-0.715 -0.108,-1.469 -0.164,-2.192 -0.24,-1.751 -0.797,-3.523 -1.256,-5.233 -4.895,2.13 -13.285,2.442 -18.532,0.987 -3.643,1.928 -5.698,6.056 -4.906,10.213 0.091,-0.028 0.817,-0.241 1.216,-0.36 0.134,-3.634 3.168,-6.54 6.89,-6.54 3.811,0 6.899,3.043 6.899,6.797 0,0.321 -0.024,0.638 -0.068,0.946 m -8.744,-20.145 c 0.931,0 1.685,-0.757 1.685,-1.687 0,-0.93 -0.754,-1.686 -1.685,-1.686 -0.932,0 -1.687,0.756 -1.687,1.686 0,0.93 0.754,1.687 1.687,1.687 m 0,1.636 c 1.835,0 3.322,-1.488 3.322,-3.323 0,-1.835 -1.487,-3.32 -3.322,-3.322 -1.837,0.002 -3.323,1.487 -3.323,3.322 0,1.835 1.486,3.323 3.323,3.323 m 4.08,19.8 c 0.735,-0.195 1.171,-0.95 0.975,-1.685 -0.198,-0.734 -0.95,-1.171 -1.686,-0.975 -0.736,0.196 -1.172,0.952 -0.974,1.685 0.195,0.735 0.95,1.171 1.685,0.975 m -0.988,1.925 c 2.449,-0.654 3.904,-3.169 3.251,-5.618 -0.654,-2.452 -3.17,-3.906 -5.619,-3.251 -2.447,0.653 -3.902,3.17 -3.249,5.617 0.655,2.45 3.169,3.906 5.617,3.252 m -3.824,-24.489 h 1.463 c 0.151,0 0.276,-0.126 0.276,-0.279 v -0.563 c 0,-0.152 -0.125,-0.276 -0.276,-0.276 h -1.463 c -0.153,0 -0.277,0.124 -0.277,0.276 v 0.563 c 0,0.153 0.124,0.279 0.277,0.279 m -18.887,49.24 c -2.24,-0.54 -7.972,-2.442 -10.016,-3.426 V 54.75 c 0,-3.476 -0.341,-2.687 3.308,-2.807 19.662,-0.643 30.184,-3.291 44.931,-12.41 -0.294,3.64 -1.473,7.188 -3.227,10.372 -9.868,7.203 -19.159,10.752 -31.32,11.582 34.47,8.233 65.415,-24.823 53.93,-58.979 -2.78,0.741 -8.468,2.959 -13.709,-1.464 2.547,-7.077 0.513,-18.146 -8.961,-17.501 0.338,-3.264 -1.425,-7.683 -6.21,-11.23 -6.675,-4.092 -17.007,-5.474 -22.141,-2.401 -6.378,-1.036 -11.032,0.849 -16.559,3.561 v -5.837 c 2.98,-1.962 6.43,-3.034 9.974,-3.874 l 2.516,-11.268 c 0.6,-1.21 1.67,-1.861 3.286,-1.869 h 17.013 c 1.445,0.01 2.438,0.698 3.105,1.869 l 2.431,11.591 c 2.248,0.599 4.476,1.334 6.627,2.221 l 8.793,-7.758 c 1.131,-0.521 2.306,-0.572 3.585,0.4 l 12.922,9.563 c 1.029,0.843 1.521,1.937 1.363,3.325 l -4.822,10.629 c 1.464,1.804 2.815,3.701 4.043,5.671 l 11.73,-1.108 c 1.229,0.018 2.082,0.802 2.624,2.43 l 4.842,15.345 c 0.421,1.394 0.253,2.578 -0.796,3.442 l -10.215,5.801 c 0.132,2.325 0.11,4.661 -0.056,6.977 l 10.132,5.998 c 1.108,0.591 1.258,1.851 0.649,3.597 l -5.074,15.217 c -0.313,1.48 -1.21,2.205 -2.604,2.289 L 18.23,46.801 c -1.261,1.962 -2.644,3.833 -4.149,5.615 l 4.658,10.761 c 0.343,1.301 0.039,2.386 -1.464,3.266 L 4.212,75.758 c -1.256,0.869 -2.464,1.128 -3.587,0.336 l -8.663,-7.898 c -2.176,0.843 -4.389,1.543 -6.656,2.1 l -2.563,11.478 c -0.412,1.336 -1.429,1.909 -3.196,1.808 H -36.47 c -1.885,-0.063 -2.736,-0.823 -3.122,-1.835 z" /></g><g
         transform="translate(643.7451,241.0049)"
         id="g941"><path
           inkscape:connector-curvature="0"
           id="path943"
           style="fill:#002f6d;fill-opacity:1;fill-rule:evenodd;stroke:none"
           d="M 0,0 C 0,-2.446 1.183,-4.85 3.208,-4.85 5.252,-4.85 6.42,-2.468 6.42,0 6.42,2.465 5.257,4.875 3.208,4.875 1.172,4.875 0,2.454 0,0 m 3.208,8.432 c 2.53,0 4.828,-2.048 5.739,-5.121 C 9.252,2.29 9.405,1.183 9.405,0 c 0,-4.575 -2.582,-8.437 -6.197,-8.437 -3.578,0 -6.185,3.897 -6.193,8.41 -0.009,4.559 2.575,8.459 6.193,8.459 M -42.727,0 c 0,-2.446 1.184,-4.85 3.213,-4.85 2.037,0 3.209,2.386 3.209,4.85 0,2.465 -1.165,4.875 -3.209,4.875 -2.041,0 -3.213,-2.421 -3.213,-4.875 m -2.984,0 c 0,1.172 0.155,2.269 0.466,3.291 0.929,3.085 3.176,5.141 5.731,5.141 3.644,0 6.193,-3.865 6.193,-8.432 0,-4.618 -2.617,-8.437 -6.193,-8.437 -3.594,0 -6.197,3.917 -6.197,8.437 m -18.403,0 c 0,-2.446 1.186,-4.85 3.21,-4.85 2.04,0 3.209,2.386 3.209,4.85 0,2.465 -1.163,4.875 -3.209,4.875 -2.036,0 -3.21,-2.421 -3.21,-4.875 m -2.987,0 c 0,4.61 2.632,8.432 6.197,8.432 3.614,0 6.195,-3.822 6.195,-8.432 0,-4.581 -2.581,-8.437 -6.195,-8.437 -3.565,0 -6.197,3.885 -6.197,8.437 M -100.13,6.597 V -7.915 h 7.551 v 3.329 h -4.738 v 3.13 h 2.729 V 1.79 h -2.729 v 2.862 h 4.671 v 3.266 h -7.491 z m 21.003,0 V -7.915 h 2.678 v 8.636 l 7.092,-8.636 h 0.749 V 7.918 h -2.677 v -8.729 l -7.144,8.729 -0.704,0.009 z m 25.928,0 V -7.915 h 7.636 v 3.395 h -4.736 V 7.918 h -2.905 z m 34.654,-14.512 h 2.903 V 7.918 l -2.903,-0.001 z m -2.437,7.474 v 1.312 h -5.166 v -3.219 h 2.299 v -2.3 c -0.509,-0.202 -1.035,-0.338 -1.569,-0.338 -2.28,0 -3.698,2.212 -3.698,5.102 0,1.421 0.353,2.609 1.073,3.559 1.163,1.547 2.987,1.817 4.464,0.903 0.56,-0.342 1.117,-0.887 1.684,-1.624 l 0.311,3.963 c -0.599,0.512 -1.221,0.895 -1.87,1.153 -2.327,0.925 -4.998,0.237 -6.742,-2.022 -1.24,-1.6 -1.858,-3.624 -1.858,-6.07 0,-4.862 2.702,-8.415 6.436,-8.415 1.609,0 3.21,0.675 4.636,1.609 z M -81.08,2.531 v 4.421 c -2.563,2.291 -6.062,1.963 -8.237,-0.935 -1.221,-1.632 -1.808,-3.759 -1.808,-6.017 0,-2.65 0.815,-5.059 2.425,-6.707 2.232,-2.288 5.28,-2.263 7.62,-0.204 v 4.018 c -1.674,-1.845 -4.4,-3.003 -6.135,-0.586 -0.647,0.897 -0.972,2.07 -0.972,3.52 0,1.442 0.329,2.63 0.981,3.556 1.446,2.05 3.632,1.647 5.189,0.048 z m 41.761,7.096 1.015,1.325 -0.712,0.934 -1.713,-2.237 z M -3.87,2.531 V 6.952 C -6.428,9.243 -9.927,8.911 -12.106,6.017 -13.326,4.387 -13.91,2.258 -13.91,0 c 0,-2.65 0.809,-5.059 2.424,-6.707 2.239,-2.3 5.288,-2.254 7.616,-0.204 v 4.018 c -1.675,-1.845 -4.397,-3.003 -6.134,-0.586 -0.65,0.897 -0.972,2.07 -0.972,3.52 0,1.442 0.328,2.63 0.981,3.556 1.447,2.05 3.63,1.651 5.193,0.048 z M -108.691,-7.915 v 12.52 l -3.863,-0.007 v 3.32 h 10.605 V 4.605 h -3.841 v -12.52 z" /></g><g
         transform="translate(677.4102,216.4072)"
         id="g945"><path
           inkscape:connector-curvature="0"
           id="path947"
           style="fill:#002f6d;fill-opacity:1;fill-rule:evenodd;stroke:none"
           d="m 0,0 c 0,4.511 2.707,8.375 6.501,8.375 3.825,0 6.503,-3.841 6.503,-8.375 0,-4.595 -2.749,-8.377 -6.503,-8.377 C 2.729,-8.377 0,-4.495 0,0 m 3.134,0 c 0,-2.432 1.242,-4.823 3.367,-4.823 2.144,0 3.368,2.372 3.368,4.823 0,2.447 -1.221,4.841 -3.368,4.841 C 4.364,4.841 3.134,2.437 3.134,0 m -56.653,7.865 -2.609,-15.733 h 2.714 l 1.121,7.291 3.367,-7.291 h 0.778 l 3.154,7.186 1.083,-7.186 h 2.892 l -2.582,15.731 h -0.538 l -4.312,-9.73 -4.571,9.73 z M -39.694,6.556 V -7.868 h 7.925 v 3.31 h -4.971 v 3.112 h 2.993 V 1.776 H -36.74 V 4.62 h 4.898 v 3.243 h -7.85 z m 13.598,-6.286 -4.583,-8.138 h 3.332 l 2.938,5.339 3.097,-5.339 h 3.747 l -5.026,8.464 4.106,7.267 h -3.312 l -2.472,-4.491 -2.628,4.491 h -2.947 z m 10.083,6.286 V -7.868 h 3.042 V 7.863 h -3.041 z m -19.21,2.347 0.614,0.757 -0.747,0.925 -1.364,-1.682 z M -2.019,3.624 c -1.637,1.588 -3.928,1.99 -5.446,-0.049 -1.371,-1.833 -1.401,-5.212 -0.009,-7.034 1.815,-2.388 4.676,-1.252 6.436,0.584 v -3.991 c -2.444,-2.034 -5.643,-2.078 -7.993,0.202 -3.13,3.029 -3.411,9.14 -0.653,12.642 2.287,2.875 5.958,3.202 8.646,0.929 v -4.39 z" /></g><g
         transform="translate(596.1006,212.1958)"
         id="g949"><path
           inkscape:connector-curvature="0"
           id="path951"
           style="fill:#002f6d;fill-opacity:1;fill-rule:evenodd;stroke:none"
           d="M 0,0 V 8.947 H 0.666 C 1.987,8.947 3.027,8.553 3.771,7.753 4.52,6.953 4.895,5.86 4.895,4.458 4.895,3.067 4.52,1.975 3.771,1.184 3.027,0.395 1.987,0 0.666,0 Z m -57.098,4.458 c 0,-2.414 1.241,-4.791 3.351,-4.791 2.133,0 3.35,2.363 3.35,4.791 0,2.438 -1.212,4.824 -3.35,4.824 -2.126,0 -3.351,-2.389 -3.351,-4.824 m -3.113,0 c 0,4.56 2.743,8.339 6.464,8.339 3.809,0 6.468,-3.818 6.468,-8.339 0,-4.52 -2.693,-8.329 -6.468,-8.329 -3.694,0 -6.464,3.809 -6.464,8.329 m -41.963,-7.819 0.012,15.646 h 0.716 l 7.458,-8.625 v 8.625 h 2.798 V -3.361 h -0.828 l -7.361,8.534 v -8.534 z m 16.642,4.97 1.687,4.901 1.647,-4.901 z m -4.748,-4.97 h 3.047 l 0.823,2.278 h 5.146 l 0.803,-2.278 h 3.171 l -6.14,15.646 h -0.577 z m 21.8,11.428 c -1.63,1.583 -3.907,1.98 -5.421,-0.048 -0.681,-0.913 -1.024,-2.087 -1.024,-3.518 0,-1.43 0.338,-2.589 1.016,-3.483 1.812,-2.382 4.655,-1.24 6.402,0.587 v -3.97 c -2.441,-2.035 -5.621,-2.059 -7.953,0.2 -1.681,1.631 -2.527,4.01 -2.527,6.623 0,2.238 0.611,4.341 1.88,5.951 2.286,2.875 5.943,3.174 8.6,0.926 V 6.967 Z m 3.489,2.92 V -3.361 h 3.029 v 15.646 h -3.028 z m 18.991,0 V -3.361 h 2.79 v 8.534 l 7.365,-8.482 h 0.825 v 15.594 h -2.793 V 3.66 l -7.461,8.625 h -0.725 z m 16.639,-9.378 1.689,4.901 1.646,-4.901 z m -4.746,-4.97 h 3.05 l 0.819,2.278 h 5.146 l 0.807,-2.278 h 3.168 l -6.136,15.646 h -0.579 z m 13.936,0 h 7.976 V 0 h -4.943 v 12.285 h -3.029 z M 9.653,10.987 V -3.361 h 7.883 v 3.294 H 12.59 v 3.091 h 3.216 V 6.23 H 12.59 v 2.832 h 4.876 v 3.223 c -2.932,0 -4.882,-0.013 -7.81,-0.013 z m -12.646,0 V -3.361 H 0.38 c 1.589,0 3.04,0.182 4.445,1.177 2.046,1.453 3.133,3.723 3.133,6.642 0,2.429 -0.674,4.341 -2.011,5.735 -1.343,1.393 -3.204,2.092 -5.567,2.092 h -3.369 z" /></g></g></g></svg>